<svg width="72" height="36" viewBox="0 0 72 36" fill="none" xmlns="http://www.w3.org/2000/svg">
  <rect width="72" height="36" rx="18" fill="url(#sky-dark)"/>
  <circle cx="54" cy="11" r="5.5" fill="#F8FAFC"/>
  <circle cx="56.5" cy="10.5" r="5.5" fill="#334155"/>
  <circle cx="20" cy="10" r="1" fill="#FFF7CC"/>
  <circle cx="27" cy="16" r="1" fill="#FFF7CC"/>
  <circle cx="44" cy="7" r="1" fill="#FFF7CC"/>
  <circle cx="49" cy="18" r="1" fill="#FFF7CC"/>
  <path d="M0 29C8 22 14 20 22 24C27 18 36 18 42 24C49 20 58 20 72 28V36H0V29Z" fill="#4B5563"/>
  <path d="M0 31C8 26 16 25 23 28C28 23 37 23 44 29C50 26 60 26 72 31V36H0V31Z" fill="#374151"/>
  <defs>
    <linearGradient id="sky-dark" x1="36" y1="0" x2="36" y2="36" gradientUnits="userSpaceOnUse">
      <stop stop-color="#0F172A"/>
      <stop offset="0.6" stop-color="#1E293B"/>
      <stop offset="1" stop-color="#334155"/>
    </linearGradient>
  </defs>
</svg>
